<?xml version="1.0" encoding="utf-8"?>
<!-- Generator: Adobe Illustrator 28.1.0, SVG Export Plug-In . SVG Version: 6.00 Build 0)  -->
<svg version="1.1" id="Layer_1" xmlns="http://www.w3.org/2000/svg" xmlns:xlink="http://www.w3.org/1999/xlink" x="0px" y="0px"
	 viewBox="0 0 168 27" style="enable-background:new 0 0 168 27;" xml:space="preserve">
<style type="text/css">
	.st0{fill:url(#SVGID_1_);}
	.st1{fill:#72F9FF;}
</style>
<g>
	
		<linearGradient id="SVGID_1_" gradientUnits="userSpaceOnUse" x1="31.3512" y1="25.4688" x2="31.6624" y2="25.4625" gradientTransform="matrix(1 0 0 -1 0 27.244)">
		<stop  offset="0" style="stop-color:#26A4FF"/>
		<stop  offset="1" style="stop-color:#0D9AFF"/>
	</linearGradient>
	<path class="st0" d="M31.5,1.9c0.1,0,0.2-0.1,0.2-0.2c0-0.1-0.1-0.2-0.2-0.2c-0.1,0-0.2,0.1-0.2,0.2C31.3,1.9,31.4,1.9,31.5,1.9z"
		/>
</g>
<g>
	<path class="st1" d="M56.1,6.9v15.4h-4.4V10.9l-5,9.9l-0.8,1.5l0,0l-1.6,0l-1.6,0l0,0l-0.8-1.5l-5-9.9v11.4h-4.4V6.9h7.1l4.7,9.2
		L49,6.9H56.1z"/>
	<path class="st1" d="M83.7,6.9l4.5,0l-5.5,15.4h-6.9l-3.2-8.9l-3.1,8.9h-6.9L57.1,6.9l4.5,0L66,19.4l4.4-12.3l0.1-0.2l0,0l2.2,0
		l2.2,0l0,0l0.1,0.2l4.4,12.3L83.7,6.9z"/>
	<path class="st1" d="M90.6,22.4l-4.7,0l7.8-15.4h6.2l7.8,15.4l-4.7,0l-1.4-2.8H92L90.6,22.4z M93.7,16.4h6.4l-3.2-6.3L93.7,16.4z"
		/>
	<path class="st1" d="M126,16.9l0,0.3c0,0,0,0,0,0.1c0,0,0,1.3,0,1.3c0,0.2,0,0.3,0,0.5c0,0,0,0,0,0.1c0,0.1-0.1,0.3-0.1,0.4
		c0,0,0,0,0,0.1c0,0.1-0.1,0.3-0.1,0.4c0,0,0,0.1,0,0.1c0,0.1-0.1,0.2-0.2,0.3c0,0,0,0.1-0.1,0.1c-0.1,0.1-0.1,0.2-0.2,0.3
		c0,0.1-0.1,0.1-0.1,0.2c-0.1,0.1-0.1,0.1-0.2,0.2c-0.1,0.1-0.1,0.1-0.2,0.2c0,0-0.1,0.1-0.1,0.1c-0.9,0.7-2.2,1-4,1
		c0,0-7.5,0-7.5,0c-1.7,0-3.1-0.3-4-1c0,0-0.1-0.1-0.1-0.1c-0.1-0.1-0.1-0.1-0.2-0.2c-0.1-0.1-0.1-0.1-0.2-0.2
		c0-0.1-0.1-0.1-0.1-0.2c-0.1-0.1-0.1-0.2-0.2-0.3c0,0-0.1-0.1-0.1-0.1c-0.1-0.1-0.1-0.2-0.2-0.3c0,0,0-0.1,0-0.1
		c0-0.1-0.1-0.2-0.1-0.4c0,0,0,0,0-0.1c0-0.1-0.1-0.3-0.1-0.4c0,0,0,0,0-0.1c0-0.2,0-0.3,0-0.5c0,0,0,0,0,0l0-1.4h3.9
		c0,0,0,0.4,0,0.4c0,0.1,0,0.1,0,0.2c0,0,0,0,0,0c0,0.1,0,0.1,0,0.2c0,0,0,0,0,0c0,0.1,0,0.1,0.1,0.2c0,0,0,0,0,0c0,0,0,0.1,0.1,0.1
		c0,0,0,0,0,0c0,0,0,0.1,0.1,0.1c0,0,0,0,0.1,0.1c0,0,0,0.1,0.1,0.1c0,0,0.1,0.1,0.1,0.1c0,0,0,0,0.1,0c0.4,0.3,0.9,0.4,1.6,0.4
		c0,0,0.6,0,0.6,0c0,0,4.9,0,4.9,0c0,0,0.6,0,0.6,0c0.6,0,1.3-0.1,1.8-0.5c0.2-0.2,0.4-0.6,0.4-0.9c0,0,0-0.1,0-0.1
		c-0.1-0.4-0.3-0.7-0.6-1c-0.4-0.3-1-0.4-1.5-0.4c0,0-0.6,0-0.6,0l-5.9,0H113c-0.2,0-0.4,0-0.5,0c0,0-0.1,0-0.1,0
		c-0.2,0-0.3,0-0.5,0c0,0,0,0-0.1,0c-0.5-0.1-1-0.2-1.4-0.3c0,0-0.1,0-0.1,0c-0.1,0-0.2-0.1-0.4-0.2c0,0-0.1,0-0.1,0
		c-0.5-0.3-0.9-0.6-1.2-1c0,0,0,0-0.1-0.1c-0.1-0.1-0.1-0.2-0.2-0.3c0,0,0,0,0-0.1c-0.2-0.3-0.3-0.7-0.4-1.1c0,0,0-0.1,0-0.1
		c0-0.1,0-0.3-0.1-0.4c0,0,0-0.1,0-0.1c0,0,0-0.1,0-0.1l0-0.2c0,0,0-0.1,0-0.1c0,0,0-1.3,0-1.3c0-0.2,0-0.3,0-0.5c0,0,0,0,0-0.1
		c0-0.1,0.1-0.3,0.1-0.4c0,0,0,0,0-0.1c0-0.1,0.1-0.3,0.1-0.4c0,0,0-0.1,0-0.1c0-0.1,0.1-0.2,0.2-0.3c0,0,0-0.1,0.1-0.1
		c0.1-0.1,0.1-0.2,0.2-0.3c0-0.1,0.1-0.1,0.1-0.2c0.1-0.1,0.1-0.1,0.2-0.2c0.1-0.1,0.1-0.1,0.2-0.2c0,0,0.1-0.1,0.1-0.1
		c0.9-0.7,2.2-1,4-1h7.5c1.7,0,3.1,0.3,4,1c0,0,0.1,0.1,0.1,0.1c0.1,0.1,0.1,0.1,0.2,0.2c0.1,0.1,0.1,0.1,0.2,0.2
		c0,0.1,0.1,0.1,0.1,0.2c0.1,0.1,0.1,0.2,0.2,0.3c0,0,0.1,0.1,0.1,0.1c0.1,0.1,0.1,0.2,0.2,0.3c0,0,0,0.1,0,0.1
		c0,0.1,0.1,0.2,0.1,0.4c0,0,0,0,0,0.1c0,0.1,0.1,0.3,0.1,0.4c0,0,0,0,0,0.1c0,0.2,0,0.3,0.1,0.5c0,0,0,0,0,0l0,1.4h-3.9
		c0,0,0-0.4,0-0.4c0-0.1,0-0.1,0-0.2c0,0,0,0,0,0c0-0.1,0-0.1,0-0.2c0,0,0,0,0,0c0-0.1,0-0.1-0.1-0.2c0,0,0,0,0,0c0,0,0-0.1-0.1-0.1
		c0,0,0,0,0,0c0,0,0-0.1-0.1-0.1c0,0,0,0-0.1-0.1c0,0,0-0.1-0.1-0.1c0,0-0.1-0.1-0.1-0.1c0,0,0,0-0.1,0c-0.4-0.3-0.9-0.4-1.6-0.4
		c0,0-0.6,0-0.6,0c0,0-4.9,0-4.9,0c0,0-0.6,0-0.6,0c-0.7,0-1.6,0.1-2,0.8c-0.2,0.4-0.2,0.8-0.1,1.2c0.3,0.6,0.9,0.8,1.5,0.9
		c0,0,0,0,0,0c0.1,0,0.1,0,0.2,0c0,0,0,0,0.1,0c0.1,0,0.1,0,0.2,0c0,0,0.6,0,0.6,0l4.9,0h1.5c0.2,0,0.4,0,0.5,0c0,0,0.1,0,0.1,0
		c0.2,0,0.3,0,0.5,0c0,0,0,0,0.1,0c0.5,0.1,1,0.2,1.4,0.3c0,0,0,0,0.1,0c0.1,0,0.2,0.1,0.4,0.2c0,0,0.1,0,0.1,0
		c0.5,0.3,0.9,0.6,1.2,1c0,0,0,0,0.1,0.1c0.1,0.1,0.1,0.2,0.2,0.3c0,0,0,0,0,0.1c0.2,0.3,0.3,0.7,0.4,1.1c0,0,0,0.1,0,0.1
		c0,0.1,0,0.3,0.1,0.4C126,16.7,126,16.8,126,16.9C126,16.8,126,16.9,126,16.9L126,16.9z"/>
	<path class="st1" d="M142.3,22.4l-4.7,0l7.8-15.4h6.2l7.8,15.4l-4.7,0l-1.4-2.8h-9.6L142.3,22.4z M145.4,16.4h6.4l-3.2-6.3
		L145.4,16.4z"/>
	<path class="st1" d="M160.4,22.4V6.9h4.4v15.4H160.4z"/>
</g>
<image style="overflow:visible;" width="290" height="294" xlink:href="../../../../../../Pictures/Screenshots/Screenshot 2024-04-21 081310.png"  transform="matrix(9.183674e-02 0 0 9.183674e-02 2.3683 0)">
</image>
</svg>
